<svg xmlns="http://www.w3.org/2000/svg" viewBox="0 0 1080 1080"><defs><style>.cls-1{fill:#dbe5a3;}.cls-2{fill:#c9d887;}.cls-3{fill:#7c5e52;}.cls-4{fill:#664c42;}.cls-5{fill:#ffefca;}.cls-6{fill:#f7dbaa;}.cls-7{fill:#fff;opacity:0.78;}.cls-8{fill:#ffcfc5;}.cls-10,.cls-9{fill:none;stroke:#f2a96d;stroke-linecap:round;stroke-width:11px;}.cls-9{stroke-miterlimit:10;}.cls-10{stroke-linejoin:round;}.cls-11{fill:#dcfff9;}.cls-12{fill:#bbb9f9;}.cls-13{fill:#9494ea;}.cls-14{fill:#f7e8aa;}.cls-15{fill:#f2a96d;}.cls-16{fill:#d1854b;}</style></defs><g id="Layer_3" data-name="Layer 3"><ellipse class="cls-1" cx="548.93" cy="920.62" rx="491.71" ry="89.12"/><ellipse class="cls-2" cx="320.15" cy="921.4" rx="171.88" ry="38.77"/><path class="cls-3" d="M952.61,912.44c0,27.38-98.4,49.57-219.78,49.57s-219.78-22.19-219.78-49.57S585.31,860,732.83,862.87C854.19,865.24,952.61,885.07,952.61,912.44Z"/><ellipse class="cls-2" cx="108.76" cy="912.33" rx="9.28" ry="4.57"/><ellipse class="cls-2" cx="523.65" cy="975.61" rx="9.28" ry="4.57"/><ellipse class="cls-4" cx="756.86" cy="932.52" rx="9.28" ry="4.57"/><ellipse class="cls-4" cx="558.21" cy="916.05" rx="9.28" ry="4.57"/><ellipse class="cls-4" cx="881.3" cy="887.21" rx="9.28" ry="4.57"/></g><g id="Layer_1" data-name="Layer 1"><path class="cls-2" d="M642.54,879.56s-33.7-34.57-27.33-43.08,26.12,7,33.8,23.83c-1.31-21.8-2.41-44.19,12.08-44.85s2.19,47,2.19,47,19.32-36.22,30.07-30.07S683,866.6,665.7,880.87C654.72,884,642.54,879.56,642.54,879.56Z"/><path class="cls-1" d="M609.6,956.84s-8.71-8.56-3-13,14.52,7.76,14.52,7.76,6.86-14.56,12.41-14.56,7.4,6.36,2.2,19.75C628.11,960.14,609.6,956.84,609.6,956.84Z"/><ellipse class="cls-2" cx="483.77" cy="868.6" rx="9.28" ry="4.57"/><path class="cls-5" d="M330.26,332.33c-34.43,9-118.68,60.31-121.16,148.55-2.21,78.66,47.63,149.67,165.41,151.69,121.63,2.08,161.81-34.82,182.5-84.8s9.32-124-48-173.06C458.3,331.35,389.56,316.76,330.26,332.33Z"/><path class="cls-5" d="M315.11,607.06s-41.39,47.14-55.81,96.07c-14.78,50.16-16.26,113-1.16,144,15.32,31.51,80.31,46.53,129.88,48.36s107.38-13.67,126.12-40.31C532.64,828.93,558,719,476.16,612,414.38,605.66,315.11,607.06,315.11,607.06Z"/><path class="cls-5" d="M290.18,871.9S292.73,891,294.05,903s6.53,27.78,20.93,27,23.07-36.49,24.53-51C319.38,864.85,290.18,871.9,290.18,871.9Z"/><path class="cls-5" d="M441.81,869.71s2.55,19.07,3.88,31.1,6.52,27.78,20.92,27,23.07-36.5,24.53-51C471,862.66,441.81,869.71,441.81,869.71Z"/><path class="cls-3" d="M425.72,503.23c-10.14,0-19.15-5.14-23.37-14.49-1.18-2.61-5-1.62-5.76.75-3.65,11.93-14.15,19.13-26.6,15.9-3.93-1-5.6,5.05-1.67,6.07,15.84,4.11,29.68-5,34.35-20.29l-5.76.75c5.1,11.3,16.64,17.63,28.81,17.61,4,0,4.06-6.31,0-6.3Z"/><circle class="cls-6" cx="289.54" cy="513.49" r="40.93"/><circle class="cls-6" cx="501.15" cy="507.21" r="40.93"/><path class="cls-7" d="M469.71,814.56c1,30.55-31,41.21-70.92,42.66s-72.59-6.87-73.62-37.42,30.49-56.5,70.4-57.95S468.68,784,469.71,814.56Z"/><path class="cls-5" d="M379.5,349.91s3.88-92.1-17.76-144S288,96.67,246.86,123.59s34.41,102.47,57.43,133,36.41,86.85,36.41,86.85-38-89-105-131S119.23,189.16,127.55,231c5.45,27.43,83.55,59.83,114.16,71.23s65.61,33.82,77.88,54.08C349.19,366.93,379.5,349.91,379.5,349.91Z"/><path class="cls-8" d="M272.43,139.72c-9.72,6.22,29,55,42.41,77.47,11,18.47,34.39,70.36,40.72,69.44s-3.53-58.22-19.05-91S290.44,128.19,272.43,139.72Z"/><path class="cls-8" d="M155.67,224.75c-4.68,10,51.36,29.65,73.57,40.93C247.53,275,292.74,305,297.37,301s-32.43-45.16-61.62-63.73S164.33,206.3,155.67,224.75Z"/><path class="cls-5" d="M316,608s-49.57,33.91-83.14,44.71-61.33,19.7-61.38,30.92c-.1,20.65,68.52,32.86,144.52-7.15C333.11,645.84,316,608,316,608Z"/><path class="cls-5" d="M480.19,608s49.57,33.91,83.14,44.71,61.34,19.7,61.39,30.92c.09,20.65-68.53,32.86-144.53-7.15C463.11,645.84,480.19,608,480.19,608Z"/><path class="cls-3" d="M468.94,448.06c-7.91-.85-15.89-.41-23.8-1.25-3.79-.41-7,3.5-7,7,0,4.11,3.26,6.59,7,7,7.91.84,15.89.4,23.8,1.25,3.79.41,7-3.51,7-7,0-4.12-3.26-6.59-7-7Z"/><path class="cls-3" d="M346.39,449l-20.88,1.27c-8.95.55-9,14.55,0,14L346.39,463c8.95-.55,9-14.55,0-14Z"/><line class="cls-9" x1="180.28" y1="624.33" x2="195.88" y2="816.65"/><path class="cls-10" d="M228.76,875.69l-55.82,4.52L171.63,864a40.06,40.06,0,0,1,10.45-30.38L196,818.46l16.2,12.71a40.07,40.07,0,0,1,15.21,28.29Z"/><path class="cls-10" d="M136.8,549.84l5.25,64.74a12.81,12.81,0,0,0,13.8,11.73l48.86-4a12.8,12.8,0,0,0,11.73-13.79l-5.25-64.75"/><polyline class="cls-10" points="161.89 547.8 168.17 625.31 192.39 623.34 186.1 545.84"/><rect class="cls-11" x="161.42" y="871.32" width="79.02" height="15.15" rx="7.57" transform="translate(-70.39 19.12) rotate(-4.64)"/><path class="cls-12" d="M298.83,619.14s-11.1,32.57-13.15,67.75-2.05,46-4.09,46-18.3-6.66-26.2-6.88-20,4.18-24.37,2.86-2.26-39.73,15.59-75.73C260.46,625.22,286.84,614,286.84,614Z"/><path class="cls-13" d="M288,616.31a201.23,201.23,0,0,0-26.91,65.34c-.82,3.77,5,5.37,5.78,1.6a196.44,196.44,0,0,1,26.31-63.91c2.09-3.27-3.11-6.28-5.18-3Z"/><path class="cls-12" d="M479.17,619.14s11.1,32.57,13.15,67.75,2.05,46,4.09,46,18.3-6.66,26.2-6.88,20,4.18,24.37,2.86,2.26-39.73-15.59-75.73C517.54,625.22,491.16,614,491.16,614Z"/><path class="cls-13" d="M484.85,619.34a196.44,196.44,0,0,1,26.31,63.91c.82,3.77,6.6,2.17,5.78-1.6A201.23,201.23,0,0,0,490,616.31c-2.07-3.25-7.27-.24-5.18,3Z"/><ellipse class="cls-14" cx="826.34" cy="374.08" rx="93.51" ry="87.43"/><path class="cls-3" d="M789.1,358.07a7.19,7.19,0,0,1,7.07,7.83c-.33,4.05-5.56,7-9.27,5.44s-5.47-4.93-4.72-8.39S786.41,358,789.1,358.07Z"/><path class="cls-3" d="M858.54,358.07a7.19,7.19,0,0,1,7.07,7.83c-.34,4.05-5.56,7-9.27,5.44s-5.48-4.93-4.72-8.39S855.84,358,858.54,358.07Z"/><path class="cls-3" d="M804.12,381.58c2.49,4.26,6.12,8.66,11.61,8.08,5-.53,8.46-5.32,10.65-9.44l-5,.64c3.5,4,9.13,8.73,14.89,7.32,5.25-1.28,6.65-6.55,6.82-11.32.14-4.06-6.16-4.05-6.3,0s-1.22,6.12-6.07,3.91c-1.95-.88-3.51-2.78-4.88-4.37a3.18,3.18,0,0,0-4.95.64c-1,2-2.34,4.42-4.29,5.6-3.24,2-5.57-1.65-7.09-4.24-2-3.5-7.49-.33-5.44,3.18Z"/><path class="cls-14" d="M814.15,213.4q1.67,17.23,2.6,34.52c.35,6.4,10.35,6.44,10,0q-.93-17.29-2.6-34.52c-.62-6.35-10.62-6.41-10,0Z"/><path class="cls-14" d="M935.18,321.12q11.16-10,22.78-19.38c5-4.05-2.12-11.09-7.07-7.07q-11.62,9.42-22.79,19.38c-4.81,4.29,2.28,11.34,7.08,7.07Z"/><path class="cls-14" d="M666.23,318.91q19.1,9.54,38.53,18.35c5.82,2.64,10.91-6,5-8.63q-19.44-8.82-38.54-18.35c-5.74-2.87-10.81,5.75-5,8.63Z"/><path class="cls-14" d="M905.65,463.55l33.85,30c4.8,4.26,11.9-2.79,7.07-7.07l-33.85-30c-4.8-4.25-11.9,2.8-7.07,7.07Z"/><path class="cls-14" d="M750.64,460.89,722.7,501.48c-3.65,5.32,5,10.32,8.64,5l27.94-40.59c3.65-5.32-5-10.32-8.64-5.05Z"/><path class="cls-15" d="M609.06,914.94s4.39-41.75,39.07-43.73,50.71,13.8,53.13,45.93C666.35,917.14,609.06,914.94,609.06,914.94Z"/><path class="cls-16" d="M621,892.06a120.41,120.41,0,0,0,25,1.82c3.37-.12,3.39-5.37,0-5.25a113.07,113.07,0,0,1-23.6-1.64c-3.31-.58-4.72,4.48-1.4,5.07Z"/><path class="cls-16" d="M631.45,907.83q6.06.52,12.15.7c3.38.1,3.37-5.15,0-5.25q-6.09-.18-12.15-.7c-3.37-.29-3.35,5,0,5.25Z"/><path class="cls-16" d="M674.34,899.88a100,100,0,0,0,19.18-.56c3.31-.42,3.35-5.67,0-5.25a100,100,0,0,1-19.18.56c-3.37-.23-3.36,5,0,5.25Z"/><path class="cls-2" d="M793,879.56S759.28,845,765.65,836.48s26.12,7,33.8,23.83c-1.32-21.8-2.41-44.19,12.08-44.85s2.19,47,2.19,47,19.32-36.22,30.07-30.07-10.31,34.24-27.66,48.51C805.16,884,793,879.56,793,879.56Z"/><path class="cls-15" d="M759.5,914.94s4.39-41.75,39.07-43.73,50.71,13.8,53.13,45.93C816.79,917.14,759.5,914.94,759.5,914.94Z"/><path class="cls-16" d="M771.47,892.06a120.41,120.41,0,0,0,25,1.82c3.37-.12,3.39-5.37,0-5.25a113.07,113.07,0,0,1-23.6-1.64c-3.31-.58-4.73,4.48-1.4,5.07Z"/><path class="cls-16" d="M781.89,907.83q6.06.52,12.15.7c3.38.1,3.37-5.15,0-5.25q-6.09-.18-12.15-.7c-3.37-.29-3.35,5,0,5.25Z"/><path class="cls-16" d="M824.78,899.88a100,100,0,0,0,19.18-.56c3.31-.42,3.35-5.67,0-5.25a100,100,0,0,1-19.18.56c-3.37-.23-3.36,5,0,5.25Z"/><path class="cls-3" d="M599.18,916s6.37-7.58,13-7.69,12.19,6,12.19,6,7.46-2.09,12.29-1S647,918.3,647,918.3l23.59.77s7.47-5.16,11.2-5.38a21.86,21.86,0,0,1,7.68,1.25s6.92-5.53,13.06-3.88,7.69,8,7.69,8S622.23,926,599.18,916Z"/><path class="cls-3" d="M747.57,914.53s6.37-7.57,13-7.68,12.18,6,12.18,6,7.46-2.09,12.29-1,10.43,4.94,10.43,4.94l23.6.76s7.46-5.16,11.19-5.37a22,22,0,0,1,7.68,1.24s6.92-5.52,13.06-3.88,7.69,8,7.69,8S770.62,924.52,747.57,914.53Z"/></g></svg>